<?xml version="1.0" encoding="iso-8859-1"?>
<!-- Generator: Adobe Illustrator 19.0.0, SVG Export Plug-In . SVG Version: 6.00 Build 0)  -->
<svg version="1.1" id="Capa_1" xmlns="http://www.w3.org/2000/svg" xmlns:xlink="http://www.w3.org/1999/xlink" x="0px" y="0px"
	 viewBox="0 0 511.995 511.995" style="enable-background:new 0 0 511.995 511.995;" xml:space="preserve">
<g>
	<path style="fill:#FFE100;" d="M436.264,466.907H75.731c-17.067,0-31.505-12.604-33.818-29.508L8.829,195.478
		c-2.586-18.901,11.878-35.772,30.669-35.772h432.998c18.79,0,33.254,16.87,30.669,35.772l-33.084,241.92
		C467.769,454.303,453.331,466.907,436.264,466.907"/>
	<path style="fill:#FFA800;" d="M472.498,159.707h-25.6c18.79,0,33.246,16.87,30.669,35.772l-33.084,241.92
		c-2.313,16.905-16.751,29.508-33.818,29.508h25.6c17.067,0,31.505-12.604,33.818-29.508l33.084-241.92
		C505.743,176.577,491.288,159.707,472.498,159.707"/>
	<g>
		<path style="fill:#FDCC00;" d="M201.681,108.206c-16.034-1.408-31.155-8.371-42.633-19.849l-10.897-10.906
			c-12.902-12.894-30.404-20.147-48.657-20.147H68.262c-9.421,0-17.067,7.646-17.067,17.067v85.333h10.462L201.681,108.206z"/>
		<path style="fill:#FDCC00;" d="M443.731,108.507h-32.119l18.825,51.2h30.362v-34.133
			C460.797,116.152,453.152,108.507,443.731,108.507"/>
	</g>
	<g>
		<path style="fill:#FFFFFF;" d="M67.514,437.398L34.43,195.478c-2.586-18.901,11.878-35.772,30.669-35.772h-25.6
			c-18.79,0-33.254,16.87-30.669,35.772l33.084,241.92c2.313,16.905,16.751,29.508,33.818,29.508h25.6
			C84.265,466.907,69.827,454.303,67.514,437.398"/>
		<path style="fill:#FFFFFF;" d="M76.797,74.373c0-9.421,7.646-17.067,17.067-17.067h-25.6c-9.421,0-17.067,7.646-17.067,17.067
			v85.333h10.462l15.138-5.564V74.373z"/>
	</g>
	<path style="fill:#00DA6C;" d="M430.439,159.707l-38.042-103.45c-3.26-8.841-13.065-13.38-21.914-10.129L61.654,159.707H430.439z"
		/>
	<g>
		<path d="M443.731,219.44H307.197c-4.719,0-8.533-3.814-8.533-8.533s3.814-8.533,8.533-8.533h136.533
			c4.719,0,8.533,3.814,8.533,8.533S448.45,219.44,443.731,219.44"/>
		<path d="M443.731,253.573h-68.267c-4.719,0-8.533-3.814-8.533-8.533c0-4.719,3.814-8.533,8.533-8.533h68.267
			c4.719,0,8.533,3.814,8.533,8.533C452.264,249.759,448.45,253.573,443.731,253.573"/>
		<path d="M436.264,475.44h-240c-4.719,0-8.533-3.814-8.533-8.533s3.814-8.533,8.533-8.533h240c12.732,0,23.646-9.515,25.361-22.135
			l33.084-241.911c0.913-6.682-1.084-13.397-5.478-18.423c-4.309-4.941-10.249-7.663-16.734-7.663H39.498
			c-6.485,0-12.425,2.722-16.734,7.663c-4.395,5.026-6.391,11.742-5.478,18.423L50.37,436.238
			c1.715,12.621,12.629,22.135,25.361,22.135h52.267c4.719,0,8.533,3.814,8.533,8.533s-3.814,8.533-8.533,8.533H75.731
			c-21.222,0-39.398-15.855-42.274-36.881L0.373,196.639c-1.579-11.563,1.903-23.211,9.532-31.957
			c7.492-8.585,18.278-13.508,29.594-13.508h432.998c11.315,0,22.101,4.924,29.594,13.508c7.629,8.747,11.11,20.395,9.532,31.957
			l-33.084,241.92C475.663,459.585,457.487,475.44,436.264,475.44"/>
		<path d="M170.664,466.907c0,4.719-3.814,8.533-8.533,8.533c-4.719,0-8.533-3.814-8.533-8.533s3.814-8.533,8.533-8.533
			C166.85,458.373,170.664,462.188,170.664,466.907"/>
		<path d="M59.731,151.173h0.41l113.877-41.882c-7.748-3.738-14.865-8.764-21.001-14.899l-10.906-10.906
			C130.728,72.103,115.599,65.84,99.496,65.84H68.264c-4.71,0-8.533,3.823-8.533,8.533V151.173z M61.659,168.24H51.197
			c-4.719,0-8.533-3.814-8.533-8.533V74.373c0-14.114,11.486-25.6,25.6-25.6h31.232c20.659,0,40.073,8.038,54.682,22.647
			l10.906,10.906c9.975,9.967,23.228,16.137,37.35,17.382c3.968,0.35,7.177,3.413,7.706,7.373c0.521,3.959-1.766,7.757-5.521,9.131
			L64.595,167.711C63.656,168.061,62.666,168.24,61.659,168.24L61.659,168.24z"/>
		<path d="M436.397,151.173h15.863v-25.6c0-4.71-3.823-8.533-8.533-8.533h-19.883L436.397,151.173z M460.794,168.24h-30.353
			c-3.575,0-6.775-2.236-8.013-5.589l-18.825-51.2c-0.964-2.62-0.58-5.547,1.007-7.825c1.604-2.287,4.215-3.652,7.006-3.652h32.111
			c14.123,0,25.6,11.486,25.6,25.6v34.133C469.327,164.426,465.513,168.24,460.794,168.24L460.794,168.24z"/>
		<path d="M109.581,151.173h308.625l-33.818-91.972c-1.613-4.403-6.537-6.69-10.957-5.06L109.581,151.173z M430.443,168.24H61.658
			c-4.139,0-7.68-2.97-8.405-7.031c-0.725-4.079,1.579-8.081,5.461-9.506L367.535,38.124c13.244-4.855,27.998,1.937,32.87,15.181
			l38.042,103.458c0.964,2.62,0.58,5.538-1.007,7.825C435.836,166.875,433.233,168.24,430.443,168.24L430.443,168.24z"/>
	</g>
</g>
<g>
</g>
<g>
</g>
<g>
</g>
<g>
</g>
<g>
</g>
<g>
</g>
<g>
</g>
<g>
</g>
<g>
</g>
<g>
</g>
<g>
</g>
<g>
</g>
<g>
</g>
<g>
</g>
<g>
</g>
</svg>
