<svg id="Fill_out_line" height="512" viewBox="0 0 512 512" width="512" xmlns="http://www.w3.org/2000/svg" data-name="Fill out line"><rect fill="#8acce7" height="192" rx="24" width="128" x="24" y="24"/><path d="m24 88h128v-40a24 24 0 0 0 -24-24h-80a24 24 0 0 0 -24 24z" fill="#379ec3"/><rect fill="#8acce7" height="160" rx="24" width="96" x="248" y="128"/><path d="m248 192h96v-40a24 24 0 0 0 -24-24h-48a24 24 0 0 0 -24 24z" fill="#379ec3"/><rect fill="#8acce7" height="160" rx="24" width="96" x="392" y="128"/><path d="m392 192h96v-40a24 24 0 0 0 -24-24h-48a24 24 0 0 0 -24 24z" fill="#379ec3"/><rect fill="#8acce7" height="160" rx="24" width="96" x="392" y="328"/><path d="m392 392h96v-40a24 24 0 0 0 -24-24h-48a24 24 0 0 0 -24 24z" fill="#379ec3"/><path d="m128 16h-80a32.03635 32.03635 0 0 0 -32 32v144a32.03635 32.03635 0 0 0 32 32h80a32.03635 32.03635 0 0 0 32-32v-144a32.03635 32.03635 0 0 0 -32-32zm-80 16h80a16.01833 16.01833 0 0 1 16 16v32h-112v-32a16.01833 16.01833 0 0 1 16-16zm80 176h-80a16.01833 16.01833 0 0 1 -16-16v-96h112v96a16.01833 16.01833 0 0 1 -16 16z"/><path d="m48 48h32v16h-32z"/><path d="m96 48h32v16h-32z"/><path d="m48 112h32v16h-32z"/><path d="m96 112h32v16h-32z"/><path d="m48 144h32v16h-32z"/><path d="m96 144h16v16h-16z"/><path d="m48 176h32v16h-32z"/><path d="m96 176h32v16h-32z"/><path d="m208 168a32.03635 32.03635 0 0 0 -32-32h-8v16h8a16.01833 16.01833 0 0 1 16 16 32.03635 32.03635 0 0 0 32 32h8v-16h-8a16.01833 16.01833 0 0 1 -16-16z"/><path d="m352 264v-112a32.03635 32.03635 0 0 0 -32-32h-48a32.03635 32.03635 0 0 0 -32 32v112a32.03635 32.03635 0 0 0 32 32h48a32.03635 32.03635 0 0 0 32-32zm-80-128h48a16.01833 16.01833 0 0 1 16 16v32h-80v-32a16.01833 16.01833 0 0 1 16-16zm-16 128v-64h80v64a16.01833 16.01833 0 0 1 -16 16h-48a16.01833 16.01833 0 0 1 -16-16z"/><path d="m272 152h32v16h-32z"/><path d="m272 216h32v16h-32z"/><path d="m272 248h32v16h-32z"/><path d="m464 120h-48a32.03635 32.03635 0 0 0 -32 32v112a32.03635 32.03635 0 0 0 32 32h48a32.03635 32.03635 0 0 0 32-32v-112a32.03635 32.03635 0 0 0 -32-32zm-48 16h48a16.01833 16.01833 0 0 1 16 16v32h-80v-32a16.01833 16.01833 0 0 1 16-16zm48 144h-48a16.01833 16.01833 0 0 1 -16-16v-64h80v64a16.01833 16.01833 0 0 1 -16 16z"/><path d="m416 152h32v16h-32z"/><path d="m416 216h32v16h-32z"/><path d="m416 248h32v16h-32z"/><path d="m464 320h-48a32.03635 32.03635 0 0 0 -32 32v112a32.03635 32.03635 0 0 0 32 32h48a32.03635 32.03635 0 0 0 32-32v-112a32.03635 32.03635 0 0 0 -32-32zm-48 16h48a16.01833 16.01833 0 0 1 16 16v32h-80v-32a16.01833 16.01833 0 0 1 16-16zm48 144h-48a16.01833 16.01833 0 0 1 -16-16v-64h80v64a16.01833 16.01833 0 0 1 -16 16z"/><path d="m416 352h32v16h-32z"/><path d="m416 416h32v16h-32z"/><path d="m416 448h32v16h-32z"/><path d="m360 192h16v16h-16z"/><path d="m304 336v-32h-16v32a40.04552 40.04552 0 0 0 40 40h48v-16h-48a24.02718 24.02718 0 0 1 -24-24z"/></svg>